<svg width="85" height="40" viewBox="0 0 85 40" fill="none" xmlns="http://www.w3.org/2000/svg">
<g clip-path="url(#clip0_1311_1061)">
<path fill-rule="evenodd" clip-rule="evenodd" d="M70.9932 39.7258C70.9932 39.7258 73.8714 27.9049 74.2551 26.064C74.7348 23.9324 74.351 22.0914 72.5282 22.0914C70.7054 22.0914 69.6501 23.7386 68.9786 26.5485L65.5249 39.7258H55.9312C58.5215 27.808 58.5215 27.9049 58.9052 26.064C59.3849 24.1261 59.4808 22.0914 57.4662 22.0914C55.6434 22.0914 54.5881 23.7386 53.8206 26.5485L50.4628 39.7258H40.3894L47.009 13.7587H57.0824L56.0271 17.9251C57.4662 15.309 61.1118 13.0804 63.5102 13.0804C67.5395 13.0804 68.9786 15.2121 69.3623 17.8282C71.377 15.5996 74.1592 13.0804 77.9966 13.0804C83.8488 13.0804 85.9594 17.6344 84.8082 22.6728C83.3691 29.0676 81.3544 36.5283 80.3951 39.7258H70.9932Z" fill="#008C38"/>
<path fill-rule="evenodd" clip-rule="evenodd" d="M40.7732 21.9945C38.0869 21.0256 34.3454 20.4442 31.947 20.4442C29.3567 20.4442 28.2054 21.1225 28.2054 21.9945C28.2054 24.8044 39.526 21.8007 39.526 29.1645C39.526 35.075 34.6332 40.3071 23.9842 40.3071C20.2427 40.3071 16.5971 39.0475 14.7743 38.1755L16.693 30.9086C19.0914 31.9744 23.0249 32.9433 25.6152 32.9433C28.5892 32.9433 29.5486 32.2651 29.5486 31.2962C29.5486 28.8739 18.1321 30.8117 18.1321 24.1261C18.1321 18.1188 23.2167 13.0804 33.7698 13.0804C36.5519 13.0804 40.1975 13.9525 42.8838 14.8245L40.7732 21.9945Z" fill="#008C38"/>
<path fill-rule="evenodd" clip-rule="evenodd" d="M0 39.532C0.959368 35.947 2.20655 31.1024 3.6456 25.3857C5.94808 16.6654 10.649 12.6928 17.1727 13.5649L10.2652 39.532H0Z" fill="#008C38"/>
<path fill-rule="evenodd" clip-rule="evenodd" d="M22.9289 0C30.0282 0 30.5079 10.4644 18.3239 10.4644C9.30589 10.4644 6.90747 14.5338 6.90747 14.5338C6.90747 14.5338 9.40183 0 22.9289 0Z" fill="#E3291C"/>
</g>
<defs>
<clipPath id="clip0_1311_1061">
<rect width="85" height="40" fill="white"/>
</clipPath>
</defs>
</svg>
