<svg width="28" height="20" viewBox="0 0 28 20" fill="none" xmlns="http://www.w3.org/2000/svg">
<path d="M27.4149 3.12932C27.0929 1.89755 26.1441 0.927448 24.9394 0.598229C22.7558 0 14 0 14 0C14 0 5.2442 0 3.06058 0.598229C1.8559 0.9275 0.907111 1.89755 0.585087 3.12932C0 5.36198 0 10.0202 0 10.0202C0 10.0202 0 14.6784 0.585087 16.9111C0.907111 18.1429 1.8559 19.0726 3.06058 19.4018C5.2442 20 14 20 14 20C14 20 22.7558 20 24.9394 19.4018C26.1441 19.0726 27.0929 18.1429 27.4149 16.9111C28 14.6784 28 10.0202 28 10.0202C28 10.0202 28 5.36198 27.4149 3.12932V3.12932ZM11.1363 14.2495V5.79089L18.4545 10.0203L11.1363 14.2495V14.2495Z" fill="url(#paint0_linear_332_869)"/>
<defs>
<linearGradient id="paint0_linear_332_869" x1="0" y1="10.0222" x2="28" y2="10.0222" gradientUnits="userSpaceOnUse">
<stop stop-color="#FD1A19"/>
<stop offset="1" stop-color="#FF8223"/>
</linearGradient>
</defs>
</svg>
