<svg width="14" height="14" viewBox="0 0 14 14" fill="none" xmlns="http://www.w3.org/2000/svg">
<g opacity="0.5">
<path d="M8.00046 0C7.73525 0 7.48091 0.105358 7.29338 0.292896C7.10584 0.480435 7.00049 0.734791 7.00049 1.00001C7.00049 1.26523 7.10584 1.51959 7.29338 1.70712C7.48091 1.89466 7.73525 2.00002 8.00046 2.00002H10.5864L4.29356 8.29309C4.19805 8.38534 4.12187 8.49568 4.06947 8.61769C4.01706 8.73969 3.98947 8.87091 3.98832 9.00369C3.98717 9.13648 4.01247 9.26816 4.06275 9.39105C4.11303 9.51395 4.18728 9.6256 4.28117 9.7195C4.37506 9.81339 4.48671 9.88765 4.6096 9.93793C4.73249 9.98821 4.86417 10.0135 4.99694 10.0124C5.12972 10.0112 5.26094 9.98362 5.38294 9.93121C5.50494 9.8788 5.61528 9.80261 5.70752 9.7071L12.0004 3.41404V6.00006C12.0004 6.26528 12.1057 6.51964 12.2932 6.70718C12.4808 6.89472 12.7351 7.00007 13.0003 7.00007C13.2655 7.00007 13.5199 6.89472 13.7074 6.70718C13.895 6.51964 14.0003 6.26528 14.0003 6.00006V1.00001C14.0003 0.734791 13.895 0.480435 13.7074 0.292896C13.5199 0.105358 13.2655 0 13.0003 0H8.00046Z" fill="white"/>
<path d="M1.99995 1.99987C1.46953 1.99987 0.960834 2.21059 0.585771 2.58567C0.210708 2.96074 0 3.46946 0 3.9999V12C0 12.5304 0.210708 13.0391 0.585771 13.4142C0.960834 13.7893 1.46953 14 1.99995 14H9.99974C10.5302 14 11.0388 13.7893 11.4139 13.4142C11.789 13.0391 11.9997 12.5304 11.9997 12V8.99995C11.9997 8.73473 11.8943 8.48037 11.7068 8.29283C11.5193 8.1053 11.2649 7.99994 10.9997 7.99994C10.7345 7.99994 10.4802 8.1053 10.2926 8.29283C10.1051 8.48037 9.99974 8.73473 9.99974 8.99995V12H1.99995V3.9999H4.99987C5.26508 3.9999 5.51942 3.89454 5.70696 3.707C5.89449 3.51946 5.99984 3.2651 5.99984 2.99988C5.99984 2.73467 5.89449 2.48031 5.70696 2.29277C5.51942 2.10523 5.26508 1.99987 4.99987 1.99987H1.99995Z" fill="white"/>
</g>
</svg>
