<svg width="85" height="53" viewBox="0 0 85 53" fill="none" xmlns="http://www.w3.org/2000/svg">
<g clip-path="url(#clip0)">
<path d="M64.6609 49.1243H65.0447C65.1406 49.1243 65.2365 49.1243 65.3325 49.1243C65.4284 49.1243 65.5244 49.1243 65.6203 49.1243C65.7162 49.1243 65.8122 49.0274 66.004 49.0274C66.1 49.0274 66.1959 48.9305 66.3878 48.8336C66.4837 48.7368 66.5797 48.6399 66.6756 48.543C66.7715 48.4461 66.7715 48.2523 66.7715 48.0585C66.7715 47.7678 66.6756 47.5741 66.4837 47.4772C66.2918 47.3803 66.1 47.2834 65.8122 47.2834C65.6203 47.2834 65.5243 47.2834 65.3325 47.2834C65.2365 47.2834 65.1406 47.2834 65.0447 47.2834L64.6609 49.1243ZM64.0853 51.8373H64.1812C64.2772 51.8373 64.2772 51.8373 64.3731 51.8373C64.469 51.8373 64.565 51.8373 64.565 51.8373C64.6609 51.8373 64.7569 51.8373 64.7569 51.8373C64.9487 51.8373 65.0447 51.8373 65.2365 51.7404C65.4284 51.7404 65.5244 51.6435 65.7162 51.5466C65.8122 51.4497 65.9081 51.3528 66.004 51.256C66.1 51.1591 66.1 50.9653 66.1 50.7715C66.1 50.5777 66.1 50.4808 66.004 50.3839C65.9081 50.287 65.8122 50.1901 65.7162 50.1901C65.6203 50.0932 65.5243 50.0932 65.3325 50.0932C65.2365 50.0932 65.0447 50.0932 64.8528 50.0932H64.2772L64.0853 51.8373ZM64.0853 46.4113C64.1812 46.4113 64.3731 46.4113 64.469 46.3145C64.6609 46.3145 64.7569 46.3145 64.9487 46.3145C65.1406 46.3145 65.2365 46.3145 65.4284 46.3145C65.6203 46.3145 65.8122 46.3145 65.9081 46.3145C66.1959 46.3145 66.4837 46.3145 66.6756 46.4113C66.9634 46.5082 67.1553 46.6051 67.2512 46.702C67.4431 46.7989 67.539 46.9927 67.635 47.1865C67.7309 47.3803 67.8268 47.5741 67.8268 47.8647C67.8268 48.0585 67.8268 48.2523 67.7309 48.4461C67.635 48.6399 67.539 48.8336 67.4431 48.9305C67.3472 49.1243 67.1553 49.2212 66.9634 49.3181C66.7715 49.415 66.5797 49.5119 66.3878 49.5119C66.4837 49.5119 66.5797 49.6088 66.7715 49.6088C66.8675 49.7057 66.9634 49.8026 67.0593 49.8995C67.1553 49.9964 67.2512 50.0932 67.2512 50.287C67.3471 50.3839 67.3471 50.5777 67.3471 50.7715C67.3471 51.1591 67.2512 51.5466 67.1553 51.7404C66.9634 52.0311 66.7715 52.2249 66.5797 52.4187C66.2918 52.6124 66.004 52.7093 65.7162 52.8062C65.3325 52.9031 65.0447 52.9031 64.6609 52.9031C64.565 52.9031 64.469 52.9031 64.2772 52.9031C64.0853 52.9031 63.9894 52.9031 63.7975 52.9031C63.6056 52.9031 63.4137 52.9031 63.2219 52.9031C63.03 52.9031 62.8381 52.9031 62.7422 52.8062L64.0853 46.4113Z" fill="#008A38"/>
<path d="M69.7456 48.2523V49.1243C69.8416 48.8336 70.0335 48.6399 70.2253 48.4461C70.4172 48.2523 70.705 48.1554 70.9928 48.1554C71.0888 48.1554 71.2806 48.1554 71.4725 48.2523L71.1847 49.2212C71.0888 49.2212 71.0888 49.2212 70.9928 49.2212C70.8969 49.2212 70.8969 49.2212 70.801 49.2212C70.5131 49.2212 70.3213 49.3181 70.1294 49.5119C69.9375 49.7057 69.7456 49.8995 69.6497 50.0932L69.0741 53H67.9229L68.8822 48.3492H69.7456V48.2523Z" fill="#008A38"/>
<path d="M72.8165 52.0311C72.9124 52.0311 73.0083 52.0311 73.1043 51.9342C73.2002 51.9342 73.2962 51.8373 73.3921 51.7404C73.488 51.6435 73.584 51.5466 73.584 51.5466C73.6799 51.4497 73.6799 51.3528 73.7758 51.3528L74.2555 49.2212C74.1596 49.2212 74.0636 49.1243 74.0636 49.1243C73.9677 49.1243 73.8718 49.1243 73.7758 49.1243C73.584 49.1243 73.3921 49.2212 73.2002 49.3181C73.0083 49.415 72.9124 49.6088 72.7205 49.8026C72.6246 49.9963 72.5287 50.287 72.4327 50.4808C72.3368 50.7715 72.3368 51.0622 72.3368 51.2559C72.3368 51.4497 72.3368 51.6435 72.4327 51.7404C72.5287 51.9342 72.6246 52.0311 72.8165 52.0311ZM74.9271 50.9653C74.8311 51.159 74.8311 51.4497 74.8311 51.6435C74.8311 51.8373 74.8311 52.128 74.8311 52.3218C74.8311 52.4186 74.8311 52.5155 74.8311 52.6124C74.8311 52.7093 74.8311 52.8062 74.8311 52.8062H73.9677L73.8718 52.0311C73.7758 52.128 73.6799 52.2249 73.584 52.3218C73.488 52.4186 73.3921 52.5155 73.2002 52.6124C73.1043 52.7093 72.9124 52.8062 72.8165 52.8062C72.7205 52.9031 72.5287 52.9031 72.3368 52.9031C71.953 52.9031 71.6652 52.8062 71.4734 52.5155C71.2815 52.2249 71.1855 51.9342 71.1855 51.4497C71.1855 50.9653 71.2815 50.5777 71.3774 50.1901C71.4734 49.8026 71.6652 49.415 71.8571 49.1243C72.049 48.8336 72.4327 48.543 72.7205 48.3492C73.1043 48.1554 73.488 48.0585 73.9677 48.0585C74.1596 48.0585 74.4474 48.0585 74.6393 48.1554C74.9271 48.1554 75.119 48.2523 75.4068 48.3492L74.9271 50.9653Z" fill="#008A38"/>
<path d="M75.7905 51.7404C75.8864 51.8373 76.0783 51.8373 76.2701 51.9342C76.462 52.0311 76.6539 52.0311 76.8458 52.0311C77.0376 52.0311 77.2295 52.0311 77.3255 51.9342C77.4214 51.8373 77.5173 51.7404 77.5173 51.5466C77.5173 51.4497 77.5173 51.3528 77.4214 51.2559C77.3255 51.1591 77.2295 51.0622 77.1336 50.9653C77.0376 50.8684 76.9417 50.7715 76.7498 50.6746C76.6539 50.5777 76.462 50.4808 76.3661 50.3839C76.2701 50.287 76.1742 50.1901 76.0783 49.9963C75.9823 49.8026 75.9823 49.7057 75.9823 49.415C75.9823 49.2212 75.9823 49.0274 76.0783 48.8336C76.1742 48.6399 76.2701 48.543 76.3661 48.3492C76.462 48.2523 76.6539 48.1554 76.8458 48.0585C77.0376 47.9616 77.3255 47.9616 77.5173 47.9616C77.9011 47.9616 78.1889 47.9616 78.3808 48.0585C78.5726 48.1554 78.7645 48.1554 78.9564 48.2523L78.6686 49.1243C78.5726 49.0274 78.3808 49.0274 78.1889 49.0274C77.997 49.0274 77.8051 48.9305 77.6133 48.9305C77.4214 48.9305 77.2295 48.9305 77.1336 49.0274C77.0376 49.1243 76.9417 49.2212 76.9417 49.3181C76.9417 49.415 76.9417 49.5119 77.0376 49.6088C77.1336 49.7057 77.2295 49.8026 77.3255 49.8026C77.4214 49.8995 77.5173 49.9963 77.7092 50.0932C77.8051 50.1901 77.997 50.287 78.0929 50.3839C78.1889 50.4808 78.2848 50.6746 78.3808 50.7715C78.4767 50.9653 78.4767 51.0622 78.4767 51.3528C78.4767 51.8373 78.2848 52.2249 77.997 52.5155C77.7092 52.8062 77.2295 52.9031 76.6539 52.9031C76.3661 52.9031 76.0783 52.9031 75.7905 52.8062C75.5027 52.7093 75.3108 52.7093 75.2148 52.6124L75.7905 51.7404Z" fill="#008A38"/>
<path d="M80.4911 46.8958C80.4911 46.702 80.587 46.5082 80.683 46.4113C80.7789 46.3145 80.9708 46.2176 81.1626 46.2176C81.3545 46.2176 81.5464 46.3145 81.6423 46.4113C81.7383 46.5082 81.8342 46.702 81.8342 46.8958C81.8342 47.0896 81.7383 47.2834 81.6423 47.3803C81.5464 47.4772 81.3545 47.574 81.1626 47.574C80.9708 47.574 80.7789 47.4772 80.683 47.3803C80.4911 47.2834 80.4911 47.0896 80.4911 46.8958ZM80.2992 48.2523H81.4505L80.4911 52.9031H79.3398L80.2992 48.2523Z" fill="#008A38"/>
<path d="M82.9852 51.4497C82.9852 51.6435 82.9852 51.7404 82.9852 51.8373C82.9852 51.9342 83.0812 51.9342 83.1771 51.9342C83.369 51.9342 83.4649 51.9342 83.6568 51.8373V52.6124C83.5608 52.7093 83.369 52.7093 83.1771 52.8062C82.9852 52.8062 82.7933 52.9031 82.6015 52.9031C82.3137 52.9031 82.1218 52.8062 82.0259 52.7093C81.9299 52.6124 81.834 52.4187 81.834 52.128C81.834 52.0311 81.834 51.8373 81.9299 51.6435L83.0812 46.3145H84.2324L82.9852 51.4497Z" fill="#008A38"/>
<path fill-rule="evenodd" clip-rule="evenodd" d="M70.9935 39.7258C70.9935 39.7258 73.8716 27.9049 74.2553 26.064C74.735 23.9324 74.3513 22.0914 72.5285 22.0914C70.7057 22.0914 69.6504 23.7386 68.9788 26.5485L65.5251 39.7258H55.9314C58.5217 27.808 58.5217 27.9049 58.9055 26.064C59.3851 24.1261 59.4811 22.0914 57.4664 22.0914C55.6436 22.0914 54.5883 23.7386 53.8208 26.5485L50.463 39.7258H40.3896L47.0093 13.7587H57.0827L56.0274 17.9251C57.4664 15.309 61.112 13.0804 63.5104 13.0804C67.5398 13.0804 68.9788 15.2121 69.3626 17.8282C71.3772 15.5996 74.1594 13.0804 77.9969 13.0804C83.849 13.0804 85.9596 17.6344 84.8084 22.6728C83.3693 29.0676 81.3547 36.5283 80.3953 39.7258H70.9935Z" fill="#008C38"/>
<path fill-rule="evenodd" clip-rule="evenodd" d="M40.7733 21.9945C38.0871 21.0256 34.3455 20.4442 31.9471 20.4442C29.3568 20.4442 28.2056 21.1225 28.2056 21.9945C28.2056 24.8044 39.5261 21.8007 39.5261 29.1645C39.5261 35.075 34.6333 40.3071 23.9843 40.3071C20.2428 40.3071 16.5972 39.0475 14.7744 38.1755L16.6931 30.9086C19.0916 31.9744 23.025 32.9433 25.6153 32.9433C28.5893 32.9433 29.5487 32.2651 29.5487 31.2962C29.5487 28.8739 18.1322 30.8117 18.1322 24.1261C18.1322 18.1188 23.2169 13.0804 33.7699 13.0804C36.5521 13.0804 40.1977 13.9525 42.8839 14.8245L40.7733 21.9945Z" fill="#008C38"/>
<path fill-rule="evenodd" clip-rule="evenodd" d="M0 39.532C0.959368 35.947 2.20655 31.1024 3.6456 25.3858C5.94808 16.6655 10.649 12.6929 17.1727 13.5649L10.2652 39.532H0Z" fill="#008C38"/>
<path fill-rule="evenodd" clip-rule="evenodd" d="M22.9287 0C30.028 0 30.5077 10.4644 18.3237 10.4644C9.30565 10.4644 6.90723 14.5338 6.90723 14.5338C6.90723 14.5338 9.40158 0 22.9287 0Z" fill="#E3291C"/>
</g>
<defs>
<clipPath id="clip0">
<rect width="85" height="53" fill="white"/>
</clipPath>
</defs>
</svg>
