<svg width="10" height="15" viewBox="0 0 10 15" fill="none" xmlns="http://www.w3.org/2000/svg">
<path opacity="0.75" d="M5 0C2.22222 0 0 2.4948 0 5.61331C0 9.48025 1.88889 12.9106 4.72222 14.9064C4.88889 15.0312 5.11111 15.0312 5.33333 14.9064C8.11111 12.8482 10 9.48025 10 5.61331C10 2.4948 7.77778 0 5 0ZM5 8.10811C3.77778 8.10811 2.77778 6.98545 2.77778 5.61331C2.77778 4.24116 3.77778 3.1185 5 3.1185C6.22222 3.1185 7.22222 4.24116 7.22222 5.61331C7.22222 6.98545 6.22222 8.10811 5 8.10811Z" fill="#333333"/>
</svg>
