<svg width="20" height="15" viewBox="0 0 20 15" fill="none" xmlns="http://www.w3.org/2000/svg">
<path d="M11.392 3.552C11.392 2.448 11.728 1.584 12.4 0.959996C13.12 0.335999 14.032 0.0239997 15.136 0.0239997C16.48 0.0239997 17.56 0.455998 18.376 1.32C19.24 2.136 19.672 3.384 19.672 5.064C19.672 6.648 19.432 8.016 18.952 9.168C18.52 10.32 17.968 11.304 17.296 12.12C16.672 12.888 16 13.512 15.28 13.992C14.56 14.472 13.936 14.808 13.408 15L11.608 12.552C12.712 11.976 13.576 11.256 14.2 10.392C14.824 9.528 15.136 8.4 15.136 7.008C14.944 7.056 14.68 7.08 14.344 7.08C13.432 7.08 12.712 6.768 12.184 6.144C11.656 5.472 11.392 4.608 11.392 3.552ZM0.88 3.552C0.88 2.448 1.216 1.584 1.888 0.959996C2.608 0.335999 3.52 0.0239997 4.624 0.0239997C5.968 0.0239997 7.048 0.455998 7.864 1.32C8.728 2.136 9.16 3.384 9.16 5.064C9.16 6.648 8.92 8.016 8.44 9.168C8.008 10.32 7.456 11.304 6.784 12.12C6.16 12.888 5.488 13.512 4.768 13.992C4.048 14.472 3.424 14.808 2.896 15L1.096 12.552C2.2 11.976 3.064 11.256 3.688 10.392C4.312 9.528 4.624 8.4 4.624 7.008C4.432 7.056 4.168 7.08 3.832 7.08C2.92 7.08 2.2 6.768 1.672 6.144C1.144 5.472 0.88 4.608 0.88 3.552Z" fill="#00A256"/>
</svg>
