<svg width="186" height="115" viewBox="0 0 186 115" fill="none" xmlns="http://www.w3.org/2000/svg">
<g clip-path="url(#clip0)">
<path d="M141.494 106.591H142.334C142.544 106.591 142.754 106.591 142.964 106.591C143.174 106.591 143.384 106.591 143.594 106.591C143.804 106.591 144.014 106.38 144.433 106.38C144.643 106.38 144.853 106.17 145.273 105.96C145.483 105.75 145.693 105.539 145.903 105.329C146.113 105.119 146.113 104.698 146.113 104.278C146.113 103.647 145.903 103.227 145.483 103.017C145.063 102.806 144.643 102.596 144.014 102.596C143.594 102.596 143.384 102.596 142.964 102.596C142.754 102.596 142.544 102.596 142.334 102.596L141.494 106.591ZM140.235 112.477H140.445C140.655 112.477 140.655 112.477 140.865 112.477C141.074 112.477 141.284 112.477 141.284 112.477C141.494 112.477 141.704 112.477 141.704 112.477C142.124 112.477 142.334 112.477 142.754 112.267C143.174 112.267 143.384 112.057 143.804 111.846C144.014 111.636 144.223 111.426 144.433 111.216C144.643 111.006 144.643 110.585 144.643 110.165C144.643 109.744 144.643 109.534 144.433 109.324C144.223 109.113 144.014 108.903 143.804 108.903C143.594 108.693 143.384 108.693 142.964 108.693C142.754 108.693 142.334 108.693 141.914 108.693H140.655L140.235 112.477ZM140.235 100.704C140.445 100.704 140.865 100.704 141.074 100.494C141.494 100.494 141.704 100.494 142.124 100.494C142.544 100.494 142.754 100.494 143.174 100.494C143.594 100.494 144.014 100.494 144.223 100.494C144.853 100.494 145.483 100.494 145.903 100.704C146.533 100.914 146.953 101.124 147.163 101.335C147.582 101.545 147.792 101.965 148.002 102.386C148.212 102.806 148.422 103.227 148.422 103.857C148.422 104.278 148.422 104.698 148.212 105.119C148.002 105.539 147.792 105.96 147.582 106.17C147.372 106.591 146.953 106.801 146.533 107.011C146.113 107.221 145.693 107.431 145.273 107.431C145.483 107.431 145.693 107.642 146.113 107.642C146.323 107.852 146.533 108.062 146.743 108.272C146.953 108.483 147.163 108.693 147.163 109.113C147.372 109.324 147.372 109.744 147.372 110.165C147.372 111.006 147.163 111.846 146.953 112.267C146.533 112.898 146.113 113.318 145.693 113.739C145.063 114.159 144.433 114.369 143.804 114.58C142.964 114.79 142.334 114.79 141.494 114.79C141.284 114.79 141.074 114.79 140.655 114.79C140.235 114.79 140.025 114.79 139.605 114.79C139.185 114.79 138.765 114.79 138.345 114.79C137.926 114.79 137.506 114.79 137.296 114.58L140.235 100.704Z" fill="white"/>
<path d="M152.621 104.698V106.59C152.831 105.96 153.251 105.539 153.67 105.119C154.09 104.698 154.72 104.488 155.35 104.488C155.56 104.488 155.98 104.488 156.4 104.698L155.77 106.801C155.56 106.801 155.56 106.801 155.35 106.801C155.14 106.801 155.14 106.801 154.93 106.801C154.3 106.801 153.88 107.011 153.461 107.431C153.041 107.852 152.621 108.272 152.411 108.693L151.151 115H148.632L150.731 104.909H152.621V104.698Z" fill="white"/>
<path d="M159.339 112.898C159.549 112.898 159.758 112.898 159.968 112.688C160.178 112.688 160.388 112.477 160.598 112.267C160.808 112.057 161.018 111.847 161.018 111.847C161.228 111.636 161.228 111.426 161.438 111.426L162.488 106.801C162.278 106.801 162.068 106.591 162.068 106.591C161.858 106.591 161.648 106.591 161.438 106.591C161.018 106.591 160.598 106.801 160.178 107.011C159.758 107.221 159.549 107.642 159.129 108.062C158.919 108.483 158.709 109.114 158.499 109.534C158.289 110.165 158.289 110.795 158.289 111.216C158.289 111.636 158.289 112.057 158.499 112.267C158.709 112.688 158.919 112.898 159.339 112.898ZM163.957 110.585C163.747 111.006 163.747 111.636 163.747 112.057C163.747 112.477 163.747 113.108 163.747 113.529C163.747 113.739 163.747 113.949 163.747 114.159C163.747 114.369 163.747 114.58 163.747 114.58H161.858L161.648 112.898C161.438 113.108 161.228 113.318 161.018 113.529C160.808 113.739 160.598 113.949 160.178 114.159C159.968 114.369 159.549 114.58 159.339 114.58C159.129 114.79 158.709 114.79 158.289 114.79C157.449 114.79 156.819 114.58 156.4 113.949C155.98 113.318 155.77 112.688 155.77 111.636C155.77 110.585 155.98 109.744 156.19 108.903C156.4 108.062 156.819 107.221 157.239 106.591C157.659 105.96 158.499 105.329 159.129 104.909C159.968 104.488 160.808 104.278 161.858 104.278C162.278 104.278 162.907 104.278 163.327 104.488C163.957 104.488 164.377 104.699 165.007 104.909L163.957 110.585Z" fill="white"/>
<path d="M165.847 112.267C166.056 112.477 166.476 112.477 166.896 112.687C167.316 112.897 167.736 112.897 168.156 112.897C168.576 112.897 168.995 112.897 169.205 112.687C169.415 112.477 169.625 112.267 169.625 111.846C169.625 111.636 169.625 111.426 169.415 111.215C169.205 111.005 168.995 110.795 168.786 110.585C168.576 110.375 168.366 110.164 167.946 109.954C167.736 109.744 167.316 109.534 167.106 109.323C166.896 109.113 166.686 108.903 166.476 108.482C166.266 108.062 166.266 107.852 166.266 107.221C166.266 106.8 166.266 106.38 166.476 105.96C166.686 105.539 166.896 105.329 167.106 104.908C167.316 104.698 167.736 104.488 168.156 104.278C168.576 104.067 169.205 104.067 169.625 104.067C170.465 104.067 171.095 104.067 171.515 104.278C171.935 104.488 172.354 104.488 172.774 104.698L172.144 106.59C171.935 106.38 171.515 106.38 171.095 106.38C170.675 106.38 170.255 106.17 169.835 106.17C169.415 106.17 168.995 106.17 168.786 106.38C168.576 106.59 168.366 106.8 168.366 107.011C168.366 107.221 168.366 107.431 168.576 107.641C168.786 107.852 168.995 108.062 169.205 108.062C169.415 108.272 169.625 108.482 170.045 108.693C170.255 108.903 170.675 109.113 170.885 109.323C171.095 109.534 171.305 109.954 171.515 110.164C171.725 110.585 171.725 110.795 171.725 111.426C171.725 112.477 171.305 113.318 170.675 113.949C170.045 114.579 168.995 114.79 167.736 114.79C167.106 114.79 166.476 114.79 165.847 114.579C165.217 114.369 164.797 114.369 164.587 114.159L165.847 112.267Z" fill="white"/>
<path d="M176.133 101.755C176.133 101.335 176.343 100.914 176.553 100.704C176.763 100.494 177.183 100.284 177.603 100.284C178.023 100.284 178.442 100.494 178.652 100.704C178.862 100.914 179.072 101.335 179.072 101.755C179.072 102.176 178.862 102.596 178.652 102.807C178.442 103.017 178.023 103.227 177.603 103.227C177.183 103.227 176.763 103.017 176.553 102.807C176.133 102.596 176.133 102.176 176.133 101.755ZM175.713 104.699H178.233L176.133 114.79H173.614L175.713 104.699Z" fill="white"/>
<path d="M181.591 111.636C181.591 112.057 181.591 112.267 181.591 112.477C181.591 112.687 181.801 112.687 182.011 112.687C182.431 112.687 182.641 112.687 183.061 112.477V114.159C182.851 114.369 182.431 114.369 182.011 114.58C181.591 114.58 181.172 114.79 180.752 114.79C180.122 114.79 179.702 114.58 179.492 114.369C179.282 114.159 179.072 113.739 179.072 113.108C179.072 112.898 179.072 112.477 179.282 112.057L181.801 100.494H184.321L181.591 111.636Z" fill="white"/>
<path fill-rule="evenodd" clip-rule="evenodd" d="M155.35 86.1974C155.35 86.1974 161.648 60.5484 162.488 56.5539C163.537 51.9287 162.698 47.9342 158.709 47.9342C154.72 47.9342 152.411 51.5082 150.941 57.6051L143.384 86.1974H122.391C128.059 60.3382 128.059 60.5484 128.898 56.5539C129.948 52.3492 130.158 47.9342 125.749 47.9342C121.761 47.9342 119.452 51.5082 117.772 57.6051L110.424 86.1974H88.3815L102.867 29.8537H124.91L122.601 38.894C125.749 33.2175 133.727 28.3821 138.975 28.3821C147.792 28.3821 150.941 33.0073 151.781 38.6837C156.19 33.8483 162.278 28.3821 170.675 28.3821C183.481 28.3821 188.099 38.2632 185.58 49.1956C182.431 63.0713 178.023 79.2596 175.923 86.1974H155.35Z" fill="white"/>
<path fill-rule="evenodd" clip-rule="evenodd" d="M89.2212 47.7239C83.3431 45.6216 75.1558 44.3601 69.9075 44.3601C64.2393 44.3601 61.7201 45.8318 61.7201 47.7239C61.7201 53.8208 86.4921 47.3035 86.4921 63.2815C86.4921 76.106 75.7856 87.4588 52.4831 87.4588C44.2957 87.4588 36.3183 84.7258 32.3296 82.8336L36.5282 67.0658C41.7765 69.3784 50.3838 71.4808 56.0519 71.4808C62.5598 71.4808 64.6592 70.0091 64.6592 67.9067C64.6592 62.6508 39.6772 66.8556 39.6772 52.3492C39.6772 39.3144 50.8036 28.3821 73.8962 28.3821C79.9842 28.3821 87.9616 30.2742 93.8397 32.1664L89.2212 47.7239Z" fill="white"/>
<path fill-rule="evenodd" clip-rule="evenodd" d="M0 85.777C2.09932 77.9982 4.82844 67.4864 7.97743 55.0823C13.0158 36.1609 23.3025 27.5412 37.5779 29.4333L22.4628 85.777H0Z" fill="white"/>
<path fill-rule="evenodd" clip-rule="evenodd" d="M50.1739 0C65.7089 0 66.7585 22.7057 40.0971 22.7057C20.3635 22.7057 15.1152 31.5356 15.1152 31.5356C15.1152 31.5356 20.5734 0 50.1739 0Z" fill="white"/>
</g>
<defs>
<clipPath id="clip0">
<rect width="186" height="115" fill="white"/>
</clipPath>
</defs>
</svg>
